%TF.GenerationSoftware,KiCad,Pcbnew,9.0.6*%
%TF.CreationDate,2026-08-29T21:11:03+08:00*%
%TF.ProjectId,GPS-Audio_PCB,4750532d-4175-4646-996f-5f5043422e6b,rev?*%
%TF.SameCoordinates,Original*%
%TF.FileFunction,Copper,L2,Bot*%
%TF.FilePolarity,Positive*%
%FSLAX46Y46*%
G04 Gerber Fmt 4.6, Leading zero omitted, Abs format (unit mm)*
G04 Created by KiCad (PCBNEW 9.0.6) date 2026-08-29 21:11:03*
%MOMM*%
%LPD*%
G01*
G04 APERTURE LIST*
%TA.AperFunction,ComponentPad*%
%ADD10O,2.540000X2.200000*%
%TD*%
%TA.AperFunction,ComponentPad*%
%ADD11O,2.200000X2.540000*%
%TD*%
%TA.AperFunction,Conductor*%
%ADD12C,1.000000*%
%TD*%
G04 APERTURE END LIST*
D10*
%TO.P,ESP32_S1,1*%
%TO.N,N/C*%
X148920000Y-111495000D03*
%TO.P,ESP32_S1,2*%
X148920000Y-114035000D03*
%TO.P,ESP32_S1,3*%
X148920000Y-116575000D03*
%TO.P,ESP32_S1,3V3*%
%TO.N,+3V3*%
X164160000Y-111495000D03*
%TO.P,ESP32_S1,4*%
%TO.N,MIC*%
X148920000Y-119115000D03*
%TO.P,ESP32_S1,5*%
%TO.N,Net-(ESP32_S1-5)*%
X148920000Y-121655000D03*
%TO.P,ESP32_S1,5V*%
%TO.N,N/C*%
X164160000Y-106415000D03*
%TO.P,ESP32_S1,6*%
X148920000Y-124195000D03*
%TO.P,ESP32_S1,7*%
X148920000Y-126735000D03*
%TO.P,ESP32_S1,8*%
X164160000Y-126735000D03*
%TO.P,ESP32_S1,9*%
X164160000Y-124195000D03*
%TO.P,ESP32_S1,10*%
X164160000Y-121655000D03*
%TO.P,ESP32_S1,11*%
X164160000Y-119115000D03*
%TO.P,ESP32_S1,12*%
X164160000Y-116575000D03*
%TO.P,ESP32_S1,13*%
X164160000Y-114075000D03*
%TO.P,ESP32_S1,GND*%
%TO.N,GND*%
X164160000Y-108955000D03*
%TO.P,ESP32_S1,RX*%
%TO.N,GPS TX*%
X148920000Y-108955000D03*
%TO.P,ESP32_S1,TX*%
%TO.N,GPS RX*%
X148920000Y-106415000D03*
%TD*%
D11*
%TO.P,U3,1,D0*%
%TO.N,unconnected-(U3-D0-Pad1)*%
X149200000Y-141400000D03*
%TO.P,U3,2,VCC*%
%TO.N,+3V3*%
X149200000Y-138900000D03*
%TO.P,U3,3,GND*%
%TO.N,GND*%
X149200000Y-136400000D03*
%TO.P,U3,4,A0*%
%TO.N,MIC*%
X149200000Y-133900000D03*
%TD*%
D10*
%TO.P,U2,1,VCC*%
%TO.N,+3V3*%
X143157000Y-110718000D03*
%TO.P,U2,2,GND*%
%TO.N,GND*%
X143157000Y-113568000D03*
%TO.P,U2,3,TX*%
%TO.N,GPS TX*%
X143157000Y-116108000D03*
%TO.P,U2,4,RX*%
%TO.N,GPS RX*%
X143157000Y-118648000D03*
%TO.P,U2,5,PPS*%
%TO.N,unconnected-(U2-PPS-Pad5)*%
X143157000Y-121188000D03*
%TD*%
D11*
%TO.P,SW1,1,1*%
%TO.N,GND*%
X158925000Y-140525000D03*
X158925000Y-134025000D03*
%TO.P,SW1,2,2*%
%TO.N,Net-(ESP32_S1-5)*%
X163425000Y-140525000D03*
X163425000Y-134025000D03*
%TD*%
D12*
%TO.N,GND*%
X164160000Y-108955000D02*
X160080000Y-108955000D01*
X148454001Y-143371000D02*
X156079000Y-143371000D01*
X154800000Y-136400000D02*
X158925000Y-140525000D01*
X153550000Y-102425000D02*
X146075000Y-102425000D01*
X146075000Y-102425000D02*
X136350000Y-112150000D01*
X143157000Y-113568000D02*
X142657000Y-113568000D01*
X139550000Y-128850000D02*
X147100000Y-136400000D01*
X160080000Y-108955000D02*
X153550000Y-102425000D01*
X142657000Y-113568000D02*
X139550000Y-116675000D01*
X149200000Y-136400000D02*
X154800000Y-136400000D01*
X139550000Y-116675000D02*
X139550000Y-128850000D01*
X156079000Y-143371000D02*
X158925000Y-140525000D01*
X136350000Y-131266999D02*
X148454001Y-143371000D01*
X136350000Y-112150000D02*
X136350000Y-131266999D01*
X147100000Y-136400000D02*
X149200000Y-136400000D01*
%TO.N,+3V3*%
X164160000Y-111495000D02*
X159633001Y-111495000D01*
X152263001Y-104125000D02*
X146775000Y-104125000D01*
X143157000Y-110718000D02*
X142682000Y-110718000D01*
X138075000Y-129900000D02*
X147075000Y-138900000D01*
X147075000Y-138900000D02*
X149200000Y-138900000D01*
X142682000Y-110718000D02*
X138075000Y-115325000D01*
X159633001Y-111495000D02*
X152263001Y-104125000D01*
X143157000Y-107743000D02*
X143157000Y-110718000D01*
X138075000Y-115325000D02*
X138075000Y-129900000D01*
X146775000Y-104125000D02*
X143157000Y-107743000D01*
%TO.N,Net-(ESP32_S1-5)*%
X151055000Y-121655000D02*
X163425000Y-134025000D01*
X148920000Y-121655000D02*
X151055000Y-121655000D01*
%TO.N,GPS TX*%
X146650000Y-121625000D02*
X146650000Y-110450000D01*
X141950000Y-123350000D02*
X144925000Y-123350000D01*
X143157000Y-116108000D02*
X142367000Y-116108000D01*
X140925000Y-122325000D02*
X141950000Y-123350000D01*
X146650000Y-110450000D02*
X148145000Y-108955000D01*
X142367000Y-116108000D02*
X140925000Y-117550000D01*
X144925000Y-123350000D02*
X146650000Y-121625000D01*
X140925000Y-117550000D02*
X140925000Y-122325000D01*
X148145000Y-108955000D02*
X148920000Y-108955000D01*
%TO.N,GPS RX*%
X146650000Y-106415000D02*
X148920000Y-106415000D01*
X145275000Y-116742000D02*
X145275000Y-107790000D01*
X143369000Y-118648000D02*
X145275000Y-116742000D01*
X145275000Y-107790000D02*
X146650000Y-106415000D01*
X143157000Y-118648000D02*
X143369000Y-118648000D01*
%TO.N,MIC*%
X166075000Y-136425000D02*
X164925000Y-137575000D01*
X152265000Y-119115000D02*
X166075000Y-132925000D01*
X158900000Y-137575000D02*
X155225000Y-133900000D01*
X148920000Y-119115000D02*
X152265000Y-119115000D01*
X155225000Y-133900000D02*
X149200000Y-133900000D01*
X166075000Y-132925000D02*
X166075000Y-136425000D01*
X164925000Y-137575000D02*
X158900000Y-137575000D01*
%TD*%
M02*
