M48
; DRILL file {KiCad 9.0.6} date 2026-08-29T20:57:47+0800
; FORMAT={-:-/ absolute / metric / decimal}
; #@! TF.CreationDate,2026-08-29T20:57:47+08:00
; #@! TF.GenerationSoftware,Kicad,Pcbnew,9.0.6
; #@! TF.FileFunction,Plated,1,2,PTH
FMAT,2
METRIC
; #@! TA.AperFunction,Plated,PTH,ComponentDrill
T1C0.800
%
G90
G05
T1
X143.157Y-110.718
X143.157Y-113.568
X143.157Y-116.108
X143.157Y-118.648
X143.157Y-121.188
X148.92Y-106.415
X148.92Y-108.955
X148.92Y-111.495
X148.92Y-114.035
X148.92Y-116.575
X148.92Y-119.115
X148.92Y-121.655
X148.92Y-124.195
X148.92Y-126.735
X149.2Y-133.9
X149.2Y-136.4
X149.2Y-138.9
X149.2Y-141.4
X158.925Y-134.025
X158.925Y-140.525
X163.425Y-134.025
X163.425Y-140.525
X164.16Y-106.415
X164.16Y-108.955
X164.16Y-111.495
X164.16Y-114.075
X164.16Y-116.575
X164.16Y-119.115
X164.16Y-121.655
X164.16Y-124.195
X164.16Y-126.735
M30
